<svg width="18" height="18" viewBox="0 0 18 18" fill="none" xmlns="http://www.w3.org/2000/svg">
<g clip-path="url(#clip0_200_1331)">
<path d="M16.4995 3.75V1.5L12.082 5.9175" stroke="#7769BF" stroke-width="1.7" stroke-linecap="round" stroke-linejoin="round"/>
<path d="M12.4502 14.168C13.6928 14.168 14.7002 13.1606 14.7002 11.918C14.7002 10.6753 13.6928 9.66797 12.4502 9.66797C11.2076 9.66797 10.2002 10.6753 10.2002 11.918C10.2002 13.1606 11.2076 14.168 12.4502 14.168Z" stroke="#7769BF" stroke-width="1.7" stroke-linecap="round" stroke-linejoin="round"/>
<path d="M6.08203 7.7998C7.32467 7.7998 8.33203 6.79245 8.33203 5.5498C8.33203 4.30716 7.32467 3.2998 6.08203 3.2998C4.83939 3.2998 3.83203 4.30716 3.83203 5.5498C3.83203 6.79245 4.83939 7.7998 6.08203 7.7998Z" stroke="#7769BF" stroke-width="1.7" stroke-linecap="round" stroke-linejoin="round"/>
<path d="M9.2627 10.9873C10.5053 10.9873 11.5127 9.97995 11.5127 8.7373C11.5127 7.49466 10.5053 6.4873 9.2627 6.4873C8.02005 6.4873 7.0127 7.49466 7.0127 8.7373C7.0127 9.97995 8.02005 10.9873 9.2627 10.9873Z" stroke="#7769BF" stroke-width="1.7" stroke-linecap="round" stroke-linejoin="round"/>
<path d="M10.4326 6.6377C11.6753 6.6377 12.6826 5.63034 12.6826 4.3877C12.6826 3.14505 11.6753 2.1377 10.4326 2.1377C9.18998 2.1377 8.18262 3.14505 8.18262 4.3877C8.18262 5.63034 9.18998 6.6377 10.4326 6.6377Z" stroke="#7769BF" stroke-width="1.7" stroke-linecap="round" stroke-linejoin="round"/>
<path d="M13.6123 9.81738C14.8549 9.81738 15.8623 8.81002 15.8623 7.56738C15.8623 6.32474 14.8549 5.31738 13.6123 5.31738C12.3697 5.31738 11.3623 6.32474 11.3623 7.56738C11.3623 8.81002 12.3697 9.81738 13.6123 9.81738Z" stroke="#7769BF" stroke-width="1.7" stroke-linecap="round" stroke-linejoin="round"/>
<path d="M4.91992 12.1504C6.16256 12.1504 7.16992 11.143 7.16992 9.90039C7.16992 8.65775 6.16256 7.65039 4.91992 7.65039C3.67728 7.65039 2.66992 8.65775 2.66992 9.90039C2.66992 11.143 3.67728 12.1504 4.91992 12.1504Z" stroke="#7769BF" stroke-width="1.7" stroke-linecap="round" stroke-linejoin="round"/>
<path d="M8.09961 15.3301C9.34225 15.3301 10.3496 14.3227 10.3496 13.0801C10.3496 11.8374 9.34225 10.8301 8.09961 10.8301C6.85697 10.8301 5.84961 11.8374 5.84961 13.0801C5.84961 14.3227 6.85697 15.3301 8.09961 15.3301Z" stroke="#7769BF" stroke-width="1.7" stroke-linecap="round" stroke-linejoin="round"/>
<path d="M3.75 16.5C4.99264 16.5 6 15.4926 6 14.25C6 13.0074 4.99264 12 3.75 12C2.50736 12 1.5 13.0074 1.5 14.25C1.5 15.4926 2.50736 16.5 3.75 16.5Z" stroke="#7769BF" stroke-width="1.7" stroke-linecap="round" stroke-linejoin="round"/>
</g>
<defs>
<clipPath id="clip0_200_1331">
<rect width="18" height="18" fill="white"/>
</clipPath>
</defs>
</svg>
